<?xml version="1.0" encoding="utf-8"?>
<!-- Generator: Adobe Illustrator 25.2.1, SVG Export Plug-In . SVG Version: 6.00 Build 0)  -->
<svg version="1.1" id="icon" xmlns="http://www.w3.org/2000/svg" xmlns:xlink="http://www.w3.org/1999/xlink" x="0px" y="0px"
	 viewBox="0 0 32 32" style="enable-background:new 0 0 32 32;" xml:space="preserve">
<style type="text/css">
	.st0{fill:#FFFFFF;}
	.st1{fill:url(#SVGID_1_);}
	.st2{fill:none;}
</style>
<rect x="19" y="10" class="st0" width="7" height="2"/>
<rect x="19" y="15" class="st0" width="7" height="2"/>
<rect x="19" y="20" class="st0" width="7" height="2"/>
<rect x="6" y="10" class="st0" width="7" height="2"/>
<rect x="6" y="15" class="st0" width="7" height="2"/>
<rect x="6" y="20" class="st0" width="7" height="2"/>
<linearGradient id="SVGID_1_" gradientUnits="userSpaceOnUse" x1="2" y1="16" x2="30" y2="16">
	<stop  offset="0" style="stop-color:#9346FF"/>
	<stop  offset="1" style="stop-color:#0F80FF"/>
</linearGradient>
<path class="st1" d="M28,5H4C2.9,5,2,5.9,2,7v18c0,1.1,0.9,2,2,2h24c1.1,0,2-0.9,2-2V7C30,5.9,29.1,5,28,5z M4,7h11v18H4V7z M17,25
	V7h11v18H17z"/>
<rect id="_Transparent_Rectangle_" y="0" class="st2" width="32" height="32"/>
</svg>
